<?xml version="1.0" encoding="UTF-8"?>
<svg id="Camada_2" data-name="Camada 2" xmlns="http://www.w3.org/2000/svg" viewBox="0 0 102.67 102.74">
  <defs>
    <style>
      .cls-1 {
        fill: #f00013;
      }

      .cls-2 {
        fill: #336182;
      }
    </style>
  </defs>
  <g>
    <circle class="cls-2" cx="6.64" cy="6.64" r="6.64"/>
    <circle class="cls-2" cx="33.2" cy="33.2" r="6.64"/>
  </g>
  <path class="cls-1" d="m102.4,66.41c-.53-2.64-1.59-5.01-3.42-7.04-2.31-2.58-5.11-4.43-8.31-5.69-4.16-1.64-8.51-2.26-12.96-2.25-4.26.01-8.51.21-12.75.59-2.55.23-5.1.45-7.65.68-1.42.13-2.85.26-4.3.39-.01.24-.02.45-.04.67-.14,1.31-.3,2.63-.42,3.94-.19,2.08-.37,4.17-.54,6.25-.17,2.08-.37,4.17-.48,6.26-.11,2.18-.11,4.37-.18,6.56-.06,2.02.03,4.04.26,6.05.25,2.13.69,4.22,1.36,6.26.49,1.48,1.11,2.91,1.84,4.3,1.2,2.31,2.84,4.24,4.78,5.95.22.2.44.42.7.57.92.54,1.83,1.1,2.79,1.57,2.42,1.16,5,1.44,7.63,1.18,1.67-.17,3.27-.65,4.79-1.39,2.07-1,3.85-2.37,5.21-4.23,1.71-2.34,2.68-4.96,2.87-7.88.11-1.66-.04-3.29-.4-4.9-.1-.44-.24-.86-.37-1.3.07-.01.1-.03.12-.02.37.09.74.19,1.12.29,3.75.94,7.39.59,10.84-1.14,3.53-1.77,5.83-4.65,7.05-8.37.78-2.38.95-4.83.46-7.3Zm-29.17,16.44c-5.11,0-9.26-4.14-9.26-9.26s4.14-9.26,9.26-9.26,9.26,4.14,9.26,9.26-4.14,9.26-9.26,9.26Z"/>
</svg>